<?xml version="1.0" encoding="UTF-8"?>
<svg width="1024" height="1024" viewBox="0 0 1024 1024" fill="none" xmlns="http://www.w3.org/2000/svg">
  <!-- Shield background -->
  <path d="M512 50L100 200V500C100 750 275.5 950 512 974C748.5 950 924 750 924 500V200L512 50Z" fill="#1E3A8A"/>
  
  <!-- Inner shield gradient -->
  <path d="M512 100L150 233.333V500C150 725 304.167 904.167 512 926.667C719.833 904.167 874 725 874 500V233.333L512 100Z" fill="url(#shield_gradient)"/>
  
  <!-- Lock body -->
  <rect x="362" y="462" width="300" height="250" rx="30" fill="#FFFFFF"/>
  
  <!-- Lock shackle -->
  <path d="M437 462V362C437 284.5 499.5 222 577 222C654.5 222 717 284.5 717 362V462" stroke="#FFFFFF" stroke-width="60" stroke-linecap="round"/>
  
  <!-- Gradient definition -->
  <defs>
    <linearGradient id="shield_gradient" x1="512" y1="100" x2="512" y2="926.667" gradientUnits="userSpaceOnUse">
      <stop offset="0%" stop-color="#2563EB"/>
      <stop offset="100%" stop-color="#1E3A8A"/>
    </linearGradient>
  </defs>
</svg>
